<?xml version="1.0" encoding="UTF-8" standalone="no"?>
<!DOCTYPE svg PUBLIC "-//W3C//DTD SVG 1.1//EN" "http://www.w3.org/Graphics/SVG/1.1/DTD/svg11.dtd">
<svg width="100%" height="100%" viewBox="0 0 335 256" version="1.1" xmlns="http://www.w3.org/2000/svg" xmlns:xlink="http://www.w3.org/1999/xlink" xml:space="preserve" xmlns:serif="http://www.serif.com/" style="fill-rule:evenodd;clip-rule:evenodd;stroke-linecap:round;stroke-linejoin:round;stroke-miterlimit:1.5;">
    <g transform="matrix(1,0,0,1,0,-39)">
        <g transform="matrix(1,0,0,1,-1689.41,-2706.28)">
            <g transform="matrix(1,0,0,1,1689.41,2706.28)">
                <path d="M16.154,279.432L128.281,167.5" style="fill:none;stroke:white;stroke-width:20px;"/>
            </g>
            <g transform="matrix(0.940299,0,0,0.929134,1699.41,2719.97)">
                <path d="M335,59.525C335,53.817 332.759,48.341 328.77,44.305C324.781,40.268 319.371,38 313.73,38L21.27,38C15.629,38 10.219,40.268 6.23,44.305C2.241,48.341 -0,53.817 0,59.525L0,270.475C-0,276.183 2.241,281.659 6.23,285.695C10.219,289.732 15.629,292 21.27,292L313.73,292C319.371,292 324.781,289.732 328.77,285.695C332.759,281.659 335,276.183 335,270.475L335,59.525Z" style="fill:none;stroke:white;stroke-width:21.4px;"/>
            </g>
            <g transform="matrix(1,0,0,1,1689.41,2706.28)">
                <path d="M16.154,54.568L167.5,207L319.461,55.184" style="fill:none;stroke:white;stroke-width:20px;"/>
            </g>
            <g transform="matrix(1,0,0,1,1689.41,2706.28)">
                <path d="M319.461,278.816L207.038,167.5" style="fill:none;stroke:white;stroke-width:20px;"/>
            </g>
        </g>
    </g>
</svg>
